# xmcd
#
# Track frame offsets:
#	150
#	19419
#	39077
#	58005
#	92190
#	109887
#	141182
#	163980
#	179202
#	205545
#
# Disc length: 3038 seconds
#
# Revision: 0
# Processed by: cddbd v1.4PL0 Copyright (c) Steve Scherf et al.
# Submitted via: dBpowerAMP V4.0
#
DISCID=8f0bdc0a
DTITLE=James Mabry - Blues Plus
DYEAR=1996
DGENRE=Blues
TTITLE0=Make My Dream Come True
TTITLE1=Walkin The Dog
TTITLE2=Stepping Out
TTITLE3=Goin' Down Slow
TTITLE4=I'm A Blues Man 2
TTITLE5=The Thrill Is Gone
TTITLE6=Slidin
TTITLE7=Nothing But A Shuffle In B-Flat
TTITLE8=I Love Big Fat Women
TTITLE9=She's Dynamite
EXTD=
EXTT0=
EXTT1=
EXTT2=
EXTT3=
EXTT4=
EXTT5=
EXTT6=
EXTT7=
EXTT8=
EXTT9=
PLAYORDER=
